PathFileType	4	(X/Y/Z)	Patient4_TMGait_0pt8_01_left_22.trc.trc
DataRate	CameraRate	NumFrames	NumMarkers	Units	OrigDataRate	OrigDataStartFrame	OrigNumFrames
86.956521739130	86.956521739130	6	33	mm	86.956521739130	53	       141
Frame#	Time	Sacral			L.Shoulder			Chest			R.Shoulder			Neck			R.ASIS			L.ASIS			R.Thigh.Superior			R.Thigh.Lateral			R.Thigh.Inferior			R.Patella			L.Thigh.Superior			L.Thigh.Lateral			L.Thigh.Inferior			L.Patella			L.Shank.Superior			L.Shank.Lateral			L.Shank.Inferior			R.Shank.Superior			R.Shank.Lateral			R.Shank.Inferior			R.Heel			R.Midfoot.Superior			R.Midfoot.Lateral			R.Toe			L.Heel			L.Midfoot.Lateral			L.Midfoot.Superior			L.Toe			L.Elbow			L.Wrist			R.Elbow			R.Wrist			
		X1	Y1	Z1	X2	Y2	Z2	X3	Y3	Z3	X4	Y4	Z4	X5	Y5	Z5	X6	Y6	Z6	X7	Y7	Z7	X8	Y8	Z8	X9	Y9	Z9	X10	Y10	Z10	X11	Y11	Z11	X12	Y12	Z12	X13	Y13	Z13	X14	Y14	Z14	X15	Y15	Z15	X16	Y16	Z16	X17	Y17	Z17	X18	Y18	Z18	X19	Y19	Z19	X20	Y20	Z20	X21	Y21	Z21	X22	Y22	Z22	X23	Y23	Z23	X24	Y24	Z24	X25	Y25	Z25	X26	Y26	Z26	X27	Y27	Z27	X28	Y28	Z28	X29	Y29	Z29	X30	Y30	Z30	X31	Y31	Z31	X32	Y32	Z32	X33	Y33	Z33	

53	24.508000000000	895.007623329189	1008.806276938637	426.784937687607	1071.545717399204	1437.088948068632	245.164930060680	1169.632997214418	1370.540315637820	410.509757890637	1078.998525488865	1442.581940746157	582.080947568926	1050.170899492324	1499.524593913590	399.993390523657	1124.360079910596	947.514545811470	540.648597658036	1107.240653761050	969.421388622609	267.155519152526	1214.394204795716	785.586935914273	518.646663126452	1179.427071759879	663.750089042765	597.510690642487	1275.567424505733	628.046908677730	524.195836825900	1297.761155953700	513.199428294148	549.071662722246	1146.082914082324	753.872007482676	290.587468800473	1044.145379396277	641.359868368172	239.526406544467	1130.372527013627	560.249837679056	293.901116337736	1127.624014768424	492.349625039432	303.886661160130	1102.596946413367	421.429528650597	302.073469672685	1008.522416536570	303.329750357270	269.344418879455	1075.441978017217	196.905496283807	336.582963033582	1219.526258489694	437.764060381034	551.121036882900	1094.187928070505	403.312316338328	607.086962324117	1076.447466715801	296.166884992407	555.833437648925	873.562650355946	239.682363841121	519.231346589637	1040.347303762362	181.939674381805	568.597226933452	928.788359464970	180.382365953232	595.608550917072	1102.349537916619	68.758070230584	597.279687581437	959.199268703356	39.186165636056	401.923092390528	1025.077930235300	35.251185882409	313.995865317843	1109.517688504159	98.335671941015	330.768428692133	1234.814991765727	48.803589448877	292.903054018461	1107.076156819194	1088.383349328015	120.878752932615	1222.185777840626	854.768100032703	116.254099998903	1008.008308177763	1100.247755200555	693.030053262870	1151.239876362567	884.263341256264	697.211376539679	
54	24.519500000000	893.960547356156	1008.315273675785	425.889049332617	1070.513690324840	1437.149189371590	244.815142442449	1168.076478136097	1370.692068706008	410.457946262952	1076.828622957625	1442.381881621393	581.758603632705	1048.546294964442	1499.460416153240	399.576703225260	1123.486506819000	947.796383788603	539.846034622189	1106.348916970030	969.796816343009	266.324910855628	1215.480956763422	788.747636051059	517.349484829059	1183.463493396591	666.552017101067	597.064549649451	1279.721944914788	632.429495911264	523.188636699972	1304.765008564477	518.572648286220	548.384060078344	1143.203911275240	753.147824007856	290.337369980055	1039.662127268514	641.555551927537	238.946690317864	1124.593242685277	559.464128250743	293.514655292570	1120.885934479068	491.638765113717	303.615130362429	1095.573080801972	421.036524160811	301.770864498018	1000.686274675701	303.547205006922	269.209413070645	1066.937479591823	196.714298776608	336.420368125675	1229.109463811070	440.925785470835	551.221530177856	1105.590865350675	401.601015260934	607.865243923164	1091.979334638094	293.467840008970	557.114550353241	891.437220184329	228.765637111944	521.565577137287	1060.592621019664	177.758756962473	570.911655225121	949.138580242181	172.180651769380	598.209425584548	1126.835999826563	67.054881692332	600.107478522549	949.916274892598	39.246207021658	401.897170710583	1015.849889368442	35.251085941186	313.987592948856	1100.343208832167	98.299304352652	330.718054417592	1225.606021010676	48.677699279992	292.876101376735	1117.083364995834	1090.706333330111	118.759601205113	1242.099101370405	862.174276533329	113.943596293804	999.348888579094	1101.075592619255	691.355176310233	1123.582313220709	873.132144498271	700.337148642549	
55	24.531000000000	892.956322735864	1007.699758326600	425.142979655470	1069.539633294825	1437.069053091635	244.577626110086	1166.603680264506	1370.694593341934	410.502886683217	1074.779849084299	1442.044904127247	581.552972125876	1046.986670063703	1499.257220676142	399.273274462305	1122.592260138374	947.815220869822	539.216086094184	1105.485226254772	970.045181705848	265.649253356053	1216.220664431547	791.425952749976	516.095145327566	1186.969240685490	668.960089839814	596.580739044325	1283.159921620040	636.226042811774	522.066398531925	1310.932512515389	523.573633377508	547.587097547089	1140.279750678000	752.345078609339	290.097345862782	1035.244536008265	641.682420777852	238.465145736109	1118.864329157642	558.651978953628	293.236347325962	1114.232784568097	490.918150939651	303.453022768255	1088.622149189248	420.612837886292	301.565260346209	992.945759388454	303.743779907699	269.085150052270	1058.455724582838	196.495471326140	336.319546333717	1238.118894842498	443.716917287292	551.294546697394	1116.784669442906	399.267167298525	608.726223645924	1107.712535364435	290.241790988276	558.541669416098	910.075992602874	216.828281621728	524.148683802812	1081.451563212126	173.014654881792	573.360604266336	970.288761715902	163.272228422793	601.096593204805	1152.139178283964	65.204605245998	603.284761031991	940.640766736362	39.295938976656	401.876705161412	1006.618184956866	35.250927175509	313.981867349312	1091.171276116777	98.256729241497	330.691354966793	1216.400004552222	48.545513092739	292.855013988052	1126.315826192609	1093.170354732880	116.834458535348	1261.389031639448	870.336598304271	111.985237566007	991.133125070046	1101.886869227793	689.836721718310	1095.738030237716	863.973980073031	703.291864372644	
56	24.542500000000	892.008961113738	1006.982245031863	424.544402676625	1068.648386055707	1436.856981501500	244.460702492970	1165.227626767783	1370.552384731487	410.658356556942	1072.852283361864	1441.572864732229	581.475035636445	1045.507488530047	1498.923565485180	399.091534849720	1121.687422350804	947.578390871960	538.754545625052	1104.665091008934	970.175371822899	265.127544203654	1216.608926300933	793.584539088166	514.889048613670	1189.898066412519	670.928885794152	596.066784849332	1285.857421549614	639.374009593728	520.865801110580	1316.205666599416	528.135008503989	546.715990023014	1137.314406475264	751.462927881495	289.856043445598	1030.871661490364	641.750270802017	238.084686043285	1113.169631284656	557.814320535901	293.052146973126	1107.655130582152	490.195777132514	303.384784509564	1081.721726422953	420.165114566487	301.449860745568	985.277530967420	303.925318323447	268.974325753058	1049.988480227263	196.255598449799	336.275179138231	1246.498169418292	446.127411776290	551.355672390177	1127.748791124514	396.357600579895	609.658006996958	1123.608784226901	286.608249743703	560.081735446177	929.523894805796	204.094377440228	526.896376660931	1102.870861592383	167.890560869306	575.881880688011	992.217199465478	153.866514933780	604.180161217968	1178.128487148041	63.423741105306	606.725452477828	931.375208627399	39.338292744038	401.856113013785	997.382764546053	35.250421170346	313.976593021895	1082.001194095323	98.207980394016	330.685188391588	1207.195451037858	48.407969286029	292.840278186931	1134.701465520399	1095.699712260971	115.082801467152	1279.976123821341	879.237759590384	110.387952217928	983.318993337859	1102.705664971924	688.512725504257	1068.076326992464	856.852697517897	706.048731162262	
57	24.554000000000	891.134474804896	1006.189626461022	424.086896933425	1067.857492269779	1436.525919762476	244.473344648625	1163.959932319449	1370.274678755212	410.935004388717	1071.052015253633	1440.974153321484	581.533878555457	1044.122977194188	1498.470474990106	399.041056519683	1120.787595904902	947.105240099008	538.455600581528	1103.905742591303	970.196176754224	264.756641194514	1216.645580076147	795.193124096006	513.746195150754	1192.196671671497	672.413326675404	595.538975412775	1287.794687367592	641.819846366545	519.638517495801	1320.530358365892	532.193648500263	545.812411195063	1134.325149893462	750.500423678079	289.608257314575	1026.520969139227	641.769866363258	237.808276213390	1107.489785614725	556.952118400725	292.951335574450	1101.136126308355	489.477575239237	303.397764124872	1074.843656385162	419.701955333912	301.417677098478	977.652866112959	304.099299210834	268.882280486322	1041.524719680818	196.002923637281	336.281518466260	1254.191562384257	448.153382971834	551.421041941306	1138.461826943011	392.921284482169	610.650479996992	1139.619994603455	282.688755747781	561.697515328010	949.811966850362	190.783724110582	529.717878061603	1124.794410811330	162.583946693358	578.418850766599	1014.896815285881	144.166370385411	607.362324895682	1204.675681715613	61.928829119081	610.328414907445	922.119880937157	39.376370637683	401.831082896201	988.143008724892	35.249001513689	313.970455862183	1072.830783296843	98.153160115711	330.696378766764	1197.989488931003	48.267932356573	292.832734969937	1142.199480318386	1098.221925378922	113.488171032261	1297.780510341777	888.854317243726	109.158114986296	975.851957766269	1103.567980166810	687.420950922732	1040.962588302058	851.764209589106	708.592626169431	
58	24.565500000000	890.350003845191	1005.349571220614	423.759901091055	1067.177367130638	1436.091060660585	244.623904484551	1162.810869029261	1369.874015078113	411.339566129075	1069.390308377128	1440.262831841156	581.735731727333	1042.845640550674	1497.909676000219	399.131657537376	1119.912334634773	946.422835756853	538.312952349915	1103.225197460452	970.114113014863	264.532186801652	1216.335580944077	796.227641247829	512.691801204767	1193.810883217359	673.370322495687	595.022511118137	1288.958763972185	643.520601936574	518.447321016175	1323.864143123875	535.692333133264	544.920924575928	1131.336693125305	749.455530073208	289.356706729284	1022.172922308432	641.751074334171	237.637464407587	1101.805726495347	556.065705267357	292.928085062782	1094.654730981150	488.765592751706	303.482983202393	1067.959025924014	419.232099389584	301.461646064538	970.042412713712	304.273351327587	268.814952400396	1033.052588117903	195.745855912869	336.332606636055	1261.146453903300	449.795678346169	551.504660249021	1148.899034431243	389.009928289670	611.692436547901	1155.682818632608	278.604058759555	563.345955555887	970.944860283371	177.111456448650	532.517595130111	1147.150420204757	157.299835835411	580.914765516847	1038.284249803050	134.365422123093	610.538365733332	1231.644226476471	60.929090420119	613.975923641692	912.872884818365	39.412746969315	401.799527540310	978.897718772832	35.245781289959	313.963090512973	1063.657029854325	98.092529657238	330.721810682379	1188.778392178331	48.129730137457	292.833211910146	1148.799392470473	1100.669987833737	112.039740054136	1314.722097203197	899.153474608617	108.299113806934	968.670570032706	1104.519564971352	686.596960305125	1014.737681583085	848.634793228801	710.919925852533	
